HIERARCHY
ROOT Hips
{
	OFFSET -0.179506 -22.333345 2.821913
	CHANNELS 6 Xposition Yposition Zposition Zrotation Yrotation Xrotation 
	JOINT LeftUpLeg
	{
		OFFSET 6.951974 -9.140623 -0.681533
		CHANNELS 3 Zrotation Yrotation Xrotation
		JOINT LeftLeg
		{
			OFFSET 3.427654 -37.519855 -0.449580
			CHANNELS 3 Zrotation Yrotation Xrotation
			JOINT LeftFoot
			{
				OFFSET -1.359570 -39.796059 -4.369333
				CHANNELS 3 Zrotation Yrotation Xrotation
				JOINT LeftToe
				{
					OFFSET 2.635814 -5.579078 11.928840
					CHANNELS 3 Zrotation Yrotation Xrotation
					End Site
					{
						OFFSET 0.000000 0.000000 0.000000
					}
				}
			}
		}
	}
	JOINT RightUpLeg
	{
		OFFSET -6.767048 -9.052170 -0.431982
		CHANNELS 3 Zrotation Yrotation Xrotation
		JOINT RightLeg
		{
			OFFSET -3.829005 -38.256897 -0.885003
			CHANNELS 3 Zrotation Yrotation Xrotation
			JOINT RightFoot
			{
				OFFSET 1.577377 -39.841461 -4.231180
				CHANNELS 3 Zrotation Yrotation Xrotation
				JOINT RightToe
				{
					OFFSET -2.537174 -4.814398 12.334795
					CHANNELS 3 Zrotation Yrotation Xrotation
					End Site
					{
						OFFSET 0.000000 0.000000 0.000000
					}
				}
			}
		}
	}
	JOINT Spine
	{
		OFFSET -0.253288 10.896323 -2.669631
		CHANNELS 3 Zrotation Yrotation Xrotation
		JOINT Spine1
		{
			OFFSET 0.548704 13.518043 0.109247
			CHANNELS 3 Zrotation Yrotation Xrotation
			JOINT Spine2
			{
				OFFSET 0.145701 5.292222 2.542457
				CHANNELS 3 Zrotation Yrotation Xrotation
				JOINT Neck
				{
					OFFSET -0.277840 21.387037 -4.285703
					CHANNELS 3 Zrotation Yrotation Xrotation
					JOINT Head
					{
						OFFSET 0.515184 6.496960 5.134897
						CHANNELS 3 Zrotation Yrotation Xrotation
						End Site
						{
							OFFSET 0.000000 0.000000 0.000000
						}
					}
				}
				JOINT LeftShoulder
				{
					OFFSET 7.884473 12.174932 -3.408961
					CHANNELS 3 Zrotation Yrotation Xrotation
					JOINT LeftArm
					{
						OFFSET 9.097692 3.046888 -0.886815
						CHANNELS 3 Zrotation Yrotation Xrotation
						JOINT LeftForeArm
						{
							OFFSET 25.961220 -1.277207 -2.745643
							CHANNELS 3 Zrotation Yrotation Xrotation
							JOINT LeftHand
							{
								OFFSET 24.923361 0.898606 -0.117091
								CHANNELS 3 Zrotation Yrotation Xrotation
								End Site
								{
									OFFSET 0.000000 0.000000 0.000000
								}
							}
						}
					}
				}
				JOINT RightShoulder
				{
					OFFSET -8.175920 11.883285 -3.861528
					CHANNELS 3 Zrotation Yrotation Xrotation
					JOINT RightArm
					{
						OFFSET -9.601238 3.255117 -0.914307
						CHANNELS 3 Zrotation Yrotation Xrotation
						JOINT RightForeArm
						{
							OFFSET -25.374195 -1.332924 -2.140099
							CHANNELS 3 Zrotation Yrotation Xrotation
							JOINT RightHand
							{
								OFFSET -25.529810 0.777228 -0.555919
								CHANNELS 3 Zrotation Yrotation Xrotation
								End Site
								{
									OFFSET 0.000000 0.000000 0.000000
								}
							}
						}
					}
				}
			}
		}
	}
}
MOTION
Frames: 9
Frame Time: 0.033333
-38.175514 -34.578548 94.699982 -125.581294 -3.247962 86.884258 -1.936022 -3.870611 19.353993 -5.288558 -10.919350 43.321380 -13.231411 3.947619 7.672066 nan nan nan -2.061394 4.625224 -18.954270 1.581469 -10.274623 4.501834 11.182136 -1.292663 14.916277 nan nan nan -1.635599 -5.118765 21.257450 1.304164 -1.508423 5.636348 2.815604 -5.980432 -1.864814 -2.733714 -1.883732 -14.014205 3.615413 -1.069917 -5.608741 -20.625676 3.777178 6.946994 -62.343583 -12.821500 20.285543 141.288073 -71.221145 -120.988877 17.440012 -39.020010 -24.103652 19.957832 -6.834471 4.228553 47.777698 -20.259440 16.663031 10.755294 72.010851 20.871454 -5.520059 28.173268 -27.119399 
-36.138218 -36.581497 95.237175 -125.786078 -3.305235 87.729065 -2.692788 -4.271990 19.515993 -5.094895 -11.354056 40.205993 -13.608478 3.323209 6.161344 nan nan nan -2.778087 4.640779 -19.133734 1.762753 -10.510658 0.647201 14.377623 -1.412822 16.661543 nan nan nan -1.695366 -5.123332 20.697767 1.407004 -1.689616 6.010914 3.018228 -5.976708 -2.689429 -3.106450 -1.717461 -13.363476 3.737279 -0.813792 -6.676998 -20.242766 4.116293 7.194582 -63.198806 -13.505647 20.672698 143.882904 -69.935411 -122.251140 18.509294 -39.482368 -25.521538 19.436542 -7.422631 4.760731 47.704284 -20.376581 16.569449 12.013744 72.638325 22.872579 -5.655536 27.703356 -27.785018 
-34.126781 -38.548637 95.679489 -125.966410 -3.218393 88.581572 -3.103976 -4.506344 19.554174 -4.880857 -11.792448 37.176663 -13.615260 2.876049 4.613198 nan nan nan -3.408328 4.529934 -19.484652 2.199597 -10.543663 -1.965565 16.626747 -0.894150 15.548448 nan nan nan -1.630953 -5.293399 19.805336 1.489180 -1.806073 6.602317 3.128741 -5.809537 -3.427061 -3.453960 -1.574548 -12.578145 3.862243 -0.782721 -7.764653 -20.006712 4.257895 7.455498 -63.316310 -13.847817 21.116636 146.519084 -68.453196 -124.881734 18.880046 -40.153817 -25.525098 18.896842 -7.889055 5.245572 47.621297 -20.507102 16.236741 14.547370 73.204030 25.224504 -5.393608 27.502767 -27.689369 
-32.151459 -40.497929 96.026756 -126.208998 -3.116094 89.356896 -3.290337 -4.327929 19.482878 -4.569411 -12.234507 34.342478 -13.439567 2.536653 3.102703 nan nan nan -3.898138 4.112585 -20.223283 2.633064 -10.375996 -2.859242 17.530657 0.120277 13.482702 nan nan nan -1.514566 -5.460591 18.857049 1.538304 -1.877810 7.387403 3.182935 -5.541101 -4.209581 -3.682422 -1.316118 -12.126123 3.846563 -0.936601 -8.441238 -19.764078 4.264816 7.677287 -63.561526 -13.938490 21.187767 149.176443 -67.100727 -127.248121 19.162538 -40.705085 -25.933381 18.354425 -8.335076 5.745947 47.791090 -20.650918 15.358763 17.702047 73.753248 28.620345 -4.772699 27.582408 -27.768232 
-30.197519 -42.448940 96.298622 -126.625779 -3.135740 90.076773 -3.702673 -3.978781 19.430264 -4.098377 -12.513001 31.460868 -12.996805 2.369003 1.465461 nan nan nan -4.394460 3.483400 -21.505245 2.872096 -10.165287 -1.661665 18.053021 0.745530 11.575764 nan nan nan -1.405861 -5.575989 18.070673 1.451492 -1.887751 8.005204 3.081744 -5.228613 -4.987063 -3.722998 -1.102895 -11.834328 3.935753 -1.021503 -8.901995 -19.499388 4.235211 7.891761 -63.692428 -13.807307 21.043209 151.455756 -65.827869 -129.341388 18.868562 -41.002437 -26.296262 18.040786 -8.500705 6.133199 47.997546 -21.018623 14.566827 19.936166 74.296500 31.052959 -3.986593 27.721562 -27.322729 
-28.236538 -44.405666 96.482117 -127.149457 -3.162353 90.736475 -4.139183 -3.415760 19.278223 -3.629842 -12.904931 28.737821 -12.296824 2.396804 -0.274083 nan nan nan -4.787071 2.981916 -22.955127 2.909222 -9.179663 0.694107 17.555197 0.928661 9.288305 nan nan nan -1.259841 -5.823425 17.651136 1.291692 -1.820063 7.767941 2.801383 -4.879341 -5.187488 -3.751700 -0.999869 -11.947998 4.034640 -1.144596 -8.702297 -19.148969 4.383502 7.820344 -63.298687 -13.473788 20.802748 153.837821 -65.064957 -131.344757 19.866318 -41.031460 -27.469220 17.922653 -8.360136 6.480303 48.172392 -21.324326 14.041607 20.885031 74.824943 31.895434 -3.364344 27.958884 -27.092002 
-26.187531 -46.343239 96.550713 -127.769856 -3.085681 91.337194 -4.398495 -2.960178 18.904466 -3.202846 -12.879934 26.311536 -11.725596 2.410270 -2.281952 nan nan nan -5.022480 3.153679 -24.479611 2.549262 -8.354091 3.911771 16.734852 1.276501 6.593969 nan nan nan -1.291474 -5.890416 17.091060 1.298509 -1.595280 7.735420 2.669653 -4.589045 -4.997295 -3.605576 -0.499084 -12.704970 3.839352 -1.631961 -8.129197 -18.979112 4.478917 7.450155 -63.516129 -13.156130 20.838850 155.114881 -64.500300 -132.869487 19.500882 -41.441810 -26.803225 17.996410 -8.084550 6.600538 48.251212 -21.271227 13.708040 20.418151 75.429359 30.665132 -2.540257 28.347989 -27.090010 
-24.076639 -48.259281 96.503265 -128.516617 -3.008667 91.893596 -4.718713 -2.602594 18.305015 -2.951089 -12.844509 24.221364 -11.221255 2.942534 -4.321892 nan nan nan -5.293350 3.891087 -26.028582 2.038518 -7.728169 7.734026 16.099716 1.565640 3.652605 nan nan nan -1.515935 -5.964268 16.938559 1.417023 -1.237345 7.063761 2.531860 -4.269470 -4.395247 -3.366794 0.369400 -13.906955 3.419217 -2.303458 -7.331063 -18.829081 4.683163 6.803142 -62.980773 -12.803059 21.100855 156.207343 -64.467135 -133.838676 20.593694 -41.332015 -27.366743 18.458608 -7.968992 6.414121 47.910994 -20.993628 13.914496 18.585444 76.079275 28.711099 -2.451801 28.806642 -27.559333 
-22.012997 -50.193069 96.367065 -129.140654 -3.090314 92.285494 -5.411919 -2.512094 17.611216 -2.796630 -12.855199 22.591349 -10.577601 3.575845 -5.764649 nan nan nan -5.847816 4.502203 -27.429305 1.650595 -7.756872 12.197160 15.495421 2.258773 0.576157 nan nan nan -1.744642 -5.845541 16.759018 1.511111 -0.973601 6.458758 2.355817 -4.063235 -3.636992 -3.084122 1.349233 -14.988738 2.973896 -3.313875 -6.739247 -18.776097 4.780185 6.371752 -63.198914 -12.484982 21.313534 156.175202 -64.572096 -134.320804 19.514930 -41.252138 -27.517062 19.020238 -7.963015 6.188714 47.585872 -20.413563 14.074416 16.429408 76.605742 26.610876 -2.665036 28.797511 -27.691955 
